<?xml version="1.0" standalone="no"?>
<!DOCTYPE svg PUBLIC "-//W3C//DTD SVG 20010904//EN"
 "http://www.w3.org/TR/2001/REC-SVG-20010904/DTD/svg10.dtd">
<svg version="1.0" xmlns="http://www.w3.org/2000/svg"
 width="407.000000pt" height="124.000000pt" viewBox="0 0 407.000000 124.000000"
 preserveAspectRatio="xMidYMid meet">

<g transform="translate(0.000000,124.000000) scale(0.100000,-0.100000)"
fill="#000000" stroke="none">
<path d="M1900 810 l0 -420 60 0 60 0 2 262 3 262 254 -277 c139 -152 255
-277 257 -277 2 0 4 189 4 420 l0 420 -65 0 -65 0 -2 -261 -3 -261 -252 276
-253 276 0 -420z"/>
<path d="M320 807 l0 -417 60 0 60 0 2 217 3 216 124 -186 c68 -103 127 -187
130 -187 3 0 62 85 131 188 l125 187 3 -218 2 -217 60 0 60 0 0 417 0 417 -62
-90 c-35 -50 -119 -175 -187 -277 -68 -103 -128 -187 -132 -187 -5 0 -92 125
-194 277 l-185 278 0 -418z"/>
<path d="M2846 1195 c-113 -40 -162 -167 -103 -267 14 -24 77 -92 141 -152
134 -125 154 -153 135 -198 -33 -80 -145 -89 -224 -18 -19 18 -21 18 -69 -18
l-49 -36 42 -37 c79 -71 174 -95 268 -68 61 17 137 89 152 144 28 104 1 155
-167 315 -113 108 -132 130 -132 156 0 65 92 94 144 45 l25 -23 47 38 47 38
-43 38 c-64 57 -136 71 -214 43z"/>
<path d="M20 795 l0 -405 60 0 60 0 0 405 0 405 -60 0 -60 0 0 -405z"/>
<path d="M1260 795 l0 -405 240 0 240 0 0 55 c0 30 -3 54 -7 54 -5 -1 -86 -1
-180 0 l-173 1 0 130 0 130 150 0 150 0 0 55 0 55 -150 0 -150 0 0 110 0 110
180 0 180 0 0 55 0 55 -240 0 -240 0 0 -405z"/>
<path d="M3550 1184 c-167 -45 -288 -193 -298 -365 -10 -171 78 -318 237 -396
50 -25 67 -28 161 -28 97 0 110 2 170 31 94 45 153 102 195 187 154 312 -130
661 -465 571z m229 -138 c212 -108 211 -399 -1 -505 -113 -57 -234 -37 -324
53 -59 59 -84 121 -84 205 0 115 87 229 202 267 59 19 146 10 207 -20z"/>
<path d="M32 178 c-20 -20 -14 -40 25 -80 34 -35 36 -39 21 -54 -12 -13 -20
-14 -36 -5 -13 7 -23 7 -27 2 -9 -15 34 -33 61 -27 14 4 26 16 30 32 5 21 -1
33 -31 64 -38 39 -40 66 -4 57 23 -6 35 9 13 17 -24 9 -39 7 -52 -6z"/>
<path d="M574 175 c-22 -9 -35 -24 -44 -49 -34 -105 122 -162 161 -59 28 74
-44 140 -117 108z m89 -37 c20 -23 21 -41 6 -69 -25 -47 -103 -43 -115 6 -19
77 57 122 109 63z"/>
<path d="M1120 100 c0 -73 3 -90 15 -90 11 0 15 11 15 40 0 38 2 40 30 40 17
0 30 5 30 10 0 6 -13 10 -30 10 -27 0 -30 3 -30 30 0 28 2 30 40 30 22 0 40 5
40 10 0 6 -25 10 -55 10 l-55 0 0 -90z"/>
<path d="M1630 180 c0 -5 11 -10 25 -10 25 0 25 -1 25 -80 0 -47 4 -80 10 -80
6 0 10 33 10 80 0 79 0 80 25 80 14 0 25 5 25 10 0 6 -27 10 -60 10 -33 0 -60
-4 -60 -10z"/>
<path d="M2170 183 c0 -14 65 -163 71 -163 3 0 14 21 26 47 l20 48 24 -54 24
-54 37 92 c25 62 32 91 23 91 -7 0 -23 -27 -35 -60 -13 -34 -25 -58 -28 -56
-2 3 -14 27 -26 53 l-22 48 -19 -53 c-10 -28 -22 -52 -25 -52 -3 0 -16 27 -29
60 -13 33 -28 60 -33 60 -4 0 -8 -3 -8 -7z"/>
<path d="M3340 101 c0 -54 4 -91 10 -91 6 0 10 13 10 30 0 39 23 39 52 0 12
-16 28 -30 36 -30 9 0 6 10 -12 30 -25 31 -25 31 -6 50 41 41 17 88 -48 97
l-42 6 0 -92z m84 47 c15 -25 -3 -52 -38 -56 -24 -3 -26 -1 -26 38 0 39 2 41
26 38 15 -2 32 -11 38 -20z"/>
<path d="M3878 100 l-3 -90 53 0 c28 0 52 5 52 10 0 6 -18 10 -40 10 -38 0
-40 2 -40 30 0 27 3 30 30 30 17 0 30 5 30 10 0 6 -13 10 -30 10 -27 0 -30 3
-30 30 0 28 2 30 40 30 22 0 40 5 40 10 0 6 -22 10 -49 10 l-50 0 -3 -90z"/>
<path d="M2812 102 c-18 -43 -32 -81 -32 -85 0 -16 19 -6 25 13 9 29 67 28 88
-3 29 -42 27 -10 -3 64 -17 41 -34 77 -38 81 -5 5 -22 -27 -40 -70z m58 -19
c0 -7 -11 -13 -24 -13 -23 0 -24 2 -13 30 11 28 13 29 24 13 7 -9 13 -23 13
-30z"/>
</g>
</svg>
