<?xml version="1.0" standalone="no"?>
<!DOCTYPE svg PUBLIC "-//W3C//DTD SVG 20010904//EN"
 "http://www.w3.org/TR/2001/REC-SVG-20010904/DTD/svg10.dtd">
<svg version="1.0" xmlns="http://www.w3.org/2000/svg"
 width="433.000000pt" height="149.000000pt" viewBox="0 0 433.000000 149.000000"
 preserveAspectRatio="xMidYMid meet">

<g transform="translate(0.000000,149.000000) scale(0.100000,-0.100000)"
fill="#000000" stroke="none">
<path d="M3320 1357 c-143 -32 -233 -117 -284 -268 l-25 -73 -48 -11 c-68 -16
-122 -44 -163 -85 -47 -47 -70 -97 -82 -178 -24 -169 32 -310 142 -356 91 -37
373 -46 452 -13 31 13 41 13 89 -1 64 -19 414 -21 541 -4 233 31 371 191 339
392 -34 211 -217 312 -437 242 l-62 -19 -12 61 c-36 187 -159 304 -336 320
-33 3 -84 0 -114 -7z m270 -475 l0 -389 -22 -20 c-18 -15 -96 -53 -111 -53 -1
0 -1 128 1 285 l4 285 -29 0 c-47 0 -81 -49 -107 -152 -6 -28 -6 -28 44 -28
55 0 57 -4 44 -68 -6 -30 -8 -31 -68 -34 l-61 -3 -45 -143 -45 -144 -60 7
c-33 4 -61 8 -63 9 -7 8 193 656 214 693 28 49 113 117 164 131 19 6 59 11 88
11 l52 1 0 -388z m315 54 c14 -21 16 -54 13 -210 -3 -205 -6 -215 -79 -264
l-34 -23 -3 237 c-2 232 -2 238 20 261 28 30 63 30 83 -1z"/>
<path d="M1396 1236 c-87 -32 -128 -106 -175 -319 -17 -76 -31 -143 -31 -148
0 -5 26 -9 58 -9 l57 0 39 163 c57 243 71 263 120 190 l25 -36 9 24 c5 13 17
41 26 63 27 64 24 68 -54 80 -19 3 -52 -1 -74 -8z"/>
<path d="M618 1017 c-20 -8 -53 -24 -72 -35 l-36 -21 0 29 c0 30 0 30 -60 30
l-60 0 0 -310 0 -310 60 0 60 0 0 185 c0 210 5 230 68 287 103 93 261 36 292
-104 5 -27 10 -121 10 -208 l0 -160 56 0 55 0 -3 202 c-3 228 -10 256 -82 336
-65 72 -204 110 -288 79z"/>
<path d="M2375 1021 c-143 -37 -201 -177 -114 -276 31 -35 73 -53 194 -80 109
-25 142 -72 92 -131 -42 -49 -150 -44 -230 11 l-35 23 -36 -37 c-35 -36 -36
-38 -19 -54 10 -9 45 -29 78 -44 130 -60 280 -35 340 55 48 73 32 174 -36 225
-15 10 -76 32 -135 49 -123 33 -146 48 -142 92 7 68 108 93 200 48 l47 -23 30
33 c17 18 31 36 31 40 0 4 -28 20 -62 37 -67 33 -151 46 -203 32z"/>
<path d="M1512 808 c3 -198 5 -216 27 -260 52 -106 157 -165 280 -156 78 6
131 31 182 85 71 75 74 84 77 326 l3 217 -55 0 -56 0 0 -182 c0 -101 -5 -199
-10 -218 -11 -41 -61 -94 -103 -109 -71 -27 -160 3 -204 68 -22 33 -23 42 -23
237 l0 204 -61 0 -61 0 4 -212z"/>
<path d="M80 693 l0 -293 55 0 55 0 0 293 0 292 -55 0 -55 0 0 -292z"/>
<path d="M1127 753 c-2 -5 -7 -25 -11 -45 -6 -35 -5 -37 22 -40 l29 -3 -43
-191 c-23 -105 -47 -201 -53 -213 -14 -25 -38 -27 -69 -5 -13 9 -25 14 -26 13
-14 -19 -66 -99 -66 -102 0 -3 14 -10 31 -16 104 -36 202 22 248 146 10 26 35
121 56 211 l39 162 48 0 c26 0 48 3 48 8 0 4 -22 5 -50 4 -46 -4 -53 -1 -96
37 -44 38 -95 55 -107 34z"/>
<path d="M1381 724 c0 -11 3 -14 6 -6 3 7 2 16 -1 19 -3 4 -6 -2 -5 -13z"/>
<path d="M1970 260 c0 -40 4 -70 10 -70 6 0 10 30 10 70 0 40 -4 70 -10 70 -6
0 -10 -30 -10 -70z"/>
<path d="M2020 260 c0 -40 4 -70 10 -70 6 0 10 30 10 70 0 40 -4 70 -10 70 -6
0 -10 -30 -10 -70z"/>
<path d="M2147 323 c-4 -3 -7 -14 -7 -24 0 -9 -6 -20 -12 -22 -10 -4 -10 -8
-1 -14 6 -4 13 -24 16 -43 l4 -35 1 38 c2 25 7 37 17 37 8 0 15 5 15 10 0 6
-7 10 -15 10 -23 0 -18 30 8 40 21 8 21 9 1 9 -11 1 -24 -2 -27 -6z"/>
<path d="M1788 293 c-5 -62 9 -103 35 -103 20 1 20 2 5 11 -22 12 -24 59 -3
59 8 0 15 5 15 10 0 6 -7 10 -15 10 -8 0 -15 7 -15 15 0 21 -20 19 -22 -2z"/>
<path d="M3647 288 c-4 -12 -2 -25 2 -28 5 -3 11 -19 13 -35 2 -24 8 -31 28
-32 25 -3 25 -3 3 7 -27 11 -33 60 -8 60 8 0 15 5 15 10 0 6 -7 10 -15 10 -8
0 -15 7 -15 15 0 23 -17 18 -23 -7z"/>
<path d="M1610 235 c0 -25 5 -45 10 -45 6 0 10 20 10 45 0 25 -4 45 -10 45 -5
0 -10 -20 -10 -45z"/>
<path d="M1671 230 c1 -46 3 -46 13 3 5 22 12 28 29 25 17 -2 23 -11 25 -35 4
-43 22 -42 22 1 0 41 -18 57 -59 54 -30 -2 -31 -4 -30 -48z"/>
<path d="M1872 268 c-29 -29 -7 -78 34 -78 13 0 26 5 29 10 4 7 -2 9 -17 5
-16 -4 -29 -1 -37 9 -12 14 -8 16 28 16 27 0 41 4 41 13 0 19 -21 37 -45 37
-12 0 -26 -5 -33 -12z m53 -18 c4 -6 -5 -10 -19 -10 -14 0 -26 5 -26 10 0 6 9
10 19 10 11 0 23 -4 26 -10z"/>
<path d="M2070 235 c0 -25 5 -45 10 -45 6 0 10 20 10 45 0 25 -4 45 -10 45 -5
0 -10 -20 -10 -45z"/>
<path d="M2216 243 c9 -21 18 -43 21 -50 2 -6 -1 -21 -7 -33 -6 -12 -9 -24 -7
-27 3 -3 14 12 25 34 33 64 51 113 43 113 -5 0 -14 -13 -21 -30 -7 -16 -16
-30 -20 -30 -4 0 -13 14 -20 30 -7 17 -16 30 -21 30 -5 0 -2 -17 7 -37z"/>
<path d="M2381 239 c20 -40 20 -52 4 -91 -4 -10 -3 -18 2 -18 8 0 34 52 71
142 2 4 -1 8 -6 8 -5 0 -17 -17 -25 -37 l-15 -38 -15 38 c-9 20 -21 37 -27 37
-6 0 -1 -18 11 -41z"/>
<path d="M2488 269 c-26 -15 -22 -56 7 -75 23 -15 27 -15 50 0 59 39 4 111
-57 75z m62 -25 c18 -21 -9 -49 -39 -39 -20 6 -28 34 -14 48 11 12 40 7 53 -9z"/>
<path d="M2604 241 c1 -36 5 -45 24 -52 17 -6 27 -4 42 11 21 21 27 65 10 75
-6 4 -10 -8 -10 -30 0 -63 -54 -56 -63 8 -3 21 -4 17 -3 -12z"/>
<path d="M2721 230 c1 -44 1 -44 9 -12 4 18 16 39 26 47 17 12 17 13 -9 12
-25 -2 -27 -5 -26 -47z"/>
<path d="M2847 273 c-11 -10 -8 -83 3 -83 6 0 10 20 10 45 0 46 -2 50 -13 38z"/>
<path d="M2890 234 c0 -51 17 -60 22 -11 2 27 7 32 28 32 21 0 26 -5 28 -32 2
-18 7 -33 12 -33 5 0 10 15 12 33 2 27 7 32 28 32 21 0 26 -5 28 -32 2 -18 8
-33 14 -33 11 0 5 67 -7 78 -3 4 -42 7 -86 8 l-79 1 0 -43z"/>
<path d="M3097 259 c-30 -42 4 -80 64 -71 27 4 29 8 29 46 l0 43 -39 1 c-30 1
-44 -3 -54 -19z m71 -26 c2 -15 -3 -23 -19 -28 -27 -9 -52 14 -43 39 10 25 58
17 62 -11z"/>
<path d="M3227 262 c-34 -37 -11 -76 43 -74 17 0 30 -3 30 -7 0 -15 -25 -31
-50 -31 -23 -1 -23 -2 -6 -11 13 -8 25 -8 42 0 22 9 24 17 24 74 l0 63 -33 2
c-22 2 -39 -4 -50 -16z m68 -26 c0 -30 -31 -44 -51 -24 -24 24 -11 50 23 46
20 -2 28 -9 28 -22z"/>
<path d="M3350 236 c0 -25 5 -46 10 -46 6 0 10 18 10 39 0 22 -4 43 -10 46 -6
4 -10 -12 -10 -39z"/>
<path d="M3400 233 c0 -50 17 -59 22 -10 2 27 7 32 28 32 21 0 26 -5 28 -32 4
-37 22 -45 22 -10 0 40 -27 67 -65 65 -34 -1 -35 -2 -35 -45z"/>
<path d="M3532 268 c-7 -7 -12 -24 -12 -38 0 -31 29 -47 73 -42 25 3 27 7 27
46 0 43 0 43 -38 44 -21 1 -44 -4 -50 -10z m66 -35 c2 -15 -3 -23 -19 -28 -27
-9 -52 14 -43 39 10 25 58 17 62 -11z"/>
<path d="M3730 235 c0 -25 5 -45 10 -45 6 0 10 20 10 45 0 25 -4 45 -10 45 -5
0 -10 -20 -10 -45z"/>
<path d="M3787 259 c-33 -46 21 -95 69 -64 28 18 31 47 8 69 -22 22 -60 20
-77 -5z m68 -29 c0 -29 -34 -40 -54 -17 -18 23 -2 49 28 45 20 -2 26 -8 26
-28z"/>
<path d="M3900 233 c0 -50 17 -59 22 -10 2 27 7 32 28 32 21 0 26 -5 28 -32 4
-41 22 -44 22 -4 0 40 -23 61 -65 59 -34 -1 -35 -2 -35 -45z"/>
</g>
</svg>
