<svg width="20" height="12" viewBox="0 0 20 12" fill="none" xmlns="http://www.w3.org/2000/svg">
<path d="M5.81716 6.10352e-05C6.39444 6.10352e-05 6.9273 0.0424637 7.41577 0.169672C7.90423 0.254478 8.30387 0.42409 8.65917 0.636104C9.01437 0.848118 9.28082 1.14494 9.45843 1.52656C9.63603 1.90819 9.72488 2.37462 9.72488 2.88346C9.72488 3.4771 9.5917 3.98595 9.28082 4.36755C9.01437 4.74915 8.57032 5.0884 8.03745 5.3428C8.79235 5.55486 9.36958 5.93646 9.72488 6.44526C10.0801 6.95415 10.3021 7.59015 10.3021 8.311C10.3021 8.90466 10.1689 9.41346 9.94691 9.83749C9.72488 10.2615 9.36958 10.6432 8.96995 10.8976C8.57032 11.152 8.08186 11.364 7.54899 11.4913C7.01612 11.6185 6.48325 11.7032 5.95037 11.7032H0V6.10352e-05H5.81716ZM5.46191 4.74915C5.95037 4.74915 6.35003 4.62195 6.66087 4.40998C6.97171 4.19792 7.10493 3.81631 7.10493 3.34988C7.10493 3.09547 7.06052 2.84104 6.97171 2.67143C6.8829 2.50183 6.74968 2.37462 6.57206 2.24741C6.39444 2.16261 6.21682 2.0778 5.99478 2.0354C5.77275 1.993 5.55072 1.993 5.28429 1.993H2.70875V4.74915H5.46191ZM5.59513 9.75272C5.86156 9.75272 6.12801 9.71029 6.35003 9.66786C6.57206 9.62552 6.79409 9.54066 6.97171 9.41346C7.14933 9.28626 7.28255 9.15906 7.41577 8.94709C7.50459 8.73503 7.5934 8.48063 7.5934 8.1838C7.5934 7.59015 7.41577 7.16612 7.06052 6.86929C6.70528 6.61489 6.21682 6.48769 5.63954 6.48769H2.70875V9.75272H5.59513ZM14.1654 9.71029C14.5207 10.0495 15.0535 10.2192 15.764 10.2192C16.2525 10.2192 16.6966 10.0919 17.0518 9.87992C17.4071 9.62552 17.6291 9.37112 17.718 9.11663H19.8938C19.5385 10.1343 19.0057 10.8552 18.2952 11.3216C17.5847 11.7457 16.741 12.0001 15.7196 12.0001C15.0091 12.0001 14.3875 11.8729 13.8102 11.6608C13.2329 11.4488 12.7888 11.152 12.3892 10.728C11.9896 10.3464 11.6787 9.87992 11.5011 9.32869C11.2791 8.77746 11.1902 8.1838 11.1902 7.50538C11.1902 6.86929 11.2791 6.27572 11.5011 5.7244C11.7231 5.17317 12.034 4.7068 12.4336 4.28277C12.8333 3.90111 13.3217 3.56189 13.8546 3.34988C14.4319 3.13786 15.0091 3.01066 15.7196 3.01066C16.4746 3.01066 17.1406 3.13787 17.718 3.43468C18.2952 3.7315 18.7393 4.07072 19.0945 4.5796C19.4498 5.04598 19.7162 5.5972 19.8938 6.19086C19.9826 6.78452 20.027 7.37818 19.9826 8.0566H13.5438C13.5438 8.73503 13.8102 9.37112 14.1654 9.71029ZM16.963 5.25803C16.6522 4.9612 16.1637 4.79158 15.5864 4.79158C15.1868 4.79158 14.8759 4.87635 14.6095 5.00363C14.343 5.13083 14.1654 5.30038 13.9878 5.47C13.8102 5.63963 13.7214 5.85169 13.677 6.06366C13.6326 6.27572 13.5882 6.44526 13.5882 6.61489H17.5847C17.4959 5.97889 17.2738 5.55486 16.963 5.25803ZM13.0553 0.805715H18.0287V1.95059H13.0553V0.805715Z" fill="white"/>
</svg>
