<svg width="72" height="72" viewBox="0 0 72 72" fill="none" xmlns="http://www.w3.org/2000/svg">
<path d="M72 28.895C72 13.4043 59.4238 0.800049 43.9681 0.800049C42.8963 0.800049 41.8263 0.862102 40.7602 0.986208C39.6922 1.10843 38.6373 1.29271 37.5917 1.53716C36.5462 1.7835 35.5195 2.08812 34.5096 2.45103C33.4998 2.81395 32.5124 3.23516 31.5514 3.71278C30.5885 4.18852 29.6574 4.72067 28.7564 5.30547C27.8554 5.88839 26.9902 6.52396 26.1624 7.20842C25.3345 7.89101 24.5481 8.6206 23.8029 9.3972C23.0577 10.1719 22.3613 10.9862 21.71 11.8417C18.5979 13.6976 15.9418 16.0651 13.7419 18.9459C12.7002 19.5663 11.7015 20.2489 10.748 20.9974C9.79443 21.7458 8.89348 22.5543 8.04505 23.4193C7.19662 24.2842 6.40638 25.2019 5.67621 26.1703C4.94603 27.1387 4.27968 28.1485 3.6809 29.2034C3.08024 30.2582 2.55091 31.347 2.09291 32.4696C1.63303 33.5941 1.24824 34.7411 0.938529 35.9145C0.626935 37.0879 0.394181 38.2763 0.236508 39.4797C0.0807132 40.6832 0.00187742 41.8922 0 43.107C0 58.5976 12.5762 71.2001 28.0319 71.2001C29.1056 71.2001 30.1737 71.138 31.2417 71.0158C32.3078 70.8917 33.3627 70.7074 34.4083 70.463C35.4538 70.2185 36.4805 69.9139 37.4904 69.5491C38.5002 69.1861 39.4876 68.7668 40.4486 68.2892C41.4115 67.8117 42.3426 67.2813 43.2436 66.6966C44.1446 66.1118 45.0098 65.478 45.8376 64.7935C46.6654 64.1091 47.4519 63.3796 48.1971 62.6048C48.9423 61.8301 49.6387 61.014 50.29 60.1584C53.4002 58.3025 56.0563 55.935 58.2581 53.0542C59.2998 52.4357 60.2985 51.7512 61.252 51.0027C62.2056 50.2544 63.1066 49.4477 63.955 48.5809C64.8034 47.7159 65.5936 46.7982 66.3238 45.8317C67.054 44.8633 67.7203 43.8516 68.3191 42.7967C68.9198 41.7419 69.4491 40.6531 69.9071 39.5305C70.367 38.4079 70.7518 37.259 71.0615 36.0857C71.3731 34.9122 71.6058 33.7238 71.7635 32.5204C71.9193 31.3169 71.9981 30.1079 72 28.895ZM20.6476 13.3254C19.9512 14.3709 19.328 15.4577 18.7762 16.5878C17.5973 17.0034 16.4505 17.4942 15.3355 18.0639C16.901 16.2531 18.6729 14.6736 20.6476 13.3254ZM43.9606 56.3036C28.8804 56.3036 16.61 44.0059 16.61 28.8912C16.61 26.8585 16.8334 24.8503 17.2821 22.8665C17.7287 20.8827 18.3895 18.9741 19.2642 17.1388C22.108 16.1723 25.0305 15.6909 28.0319 15.6947C43.1103 15.6947 55.3825 27.9905 55.3825 43.107C55.3843 45.1397 55.161 47.1498 54.7142 49.1336C54.2675 51.1175 53.6086 53.0279 52.734 54.8632C49.892 55.8297 46.9695 56.3092 43.9681 56.3074L43.9606 56.3036ZM52.2985 55.715C51.5833 57.0933 50.7574 58.4003 49.8208 59.6376C47.7259 60.8748 45.5054 61.8131 43.1572 62.4543C40.8109 63.0937 38.4214 63.4134 35.9906 63.4096C20.9085 63.4096 8.64007 51.1137 8.64007 35.9972C8.6382 34.5155 8.75645 33.0412 8.99483 31.5783C9.23319 30.1153 9.58797 28.6806 10.061 27.2741C10.5322 25.8694 11.114 24.5118 11.8066 23.2011C12.5012 21.8906 13.2952 20.6457 14.1905 19.4648C15.5213 18.6788 16.9104 18.0113 18.3557 17.4622C16.734 21.0989 15.925 24.9067 15.9268 28.8893C15.9268 44.38 28.5031 56.9843 43.9587 56.9843C46.8062 56.9881 49.5898 56.565 52.3078 55.7169L52.2985 55.715ZM56.0525 43.1033C56.0525 27.6126 43.4763 15.0083 28.0207 15.0083C25.1769 15.0064 22.3988 15.4295 19.6828 16.2776C20.3999 14.9011 21.2257 13.5923 22.1605 12.3551C24.2553 11.1178 26.4777 10.1794 28.824 9.54012C31.1703 8.8989 33.5598 8.58111 35.9906 8.58487C51.0709 8.58487 63.3412 20.8808 63.3412 35.9954C63.343 37.4771 63.2248 38.9513 62.9864 40.4142C62.748 41.8791 62.3932 43.3139 61.9221 44.7185C61.4491 46.1251 60.8672 47.4827 60.1745 48.7933C59.4819 50.1039 58.686 51.3488 57.7907 52.5297C56.4599 53.3156 55.0708 53.9814 53.6255 54.5304C55.2492 50.8974 56.0619 47.0897 56.0619 43.107L56.0525 43.1033ZM28.0319 70.5175C12.9498 70.5175 0.68137 58.2197 0.68137 43.107C0.68137 41.992 0.748944 40.8825 0.884092 39.7749C1.01924 38.6693 1.22196 37.5768 1.49038 36.4955C1.7588 35.4124 2.09291 34.3519 2.48897 33.3121C2.88691 32.2703 3.34678 31.2587 3.8686 30.2733C4.38855 29.2898 4.96669 28.3403 5.603 27.4264C6.23932 26.5125 6.93008 25.642 7.67152 24.8127C8.41483 23.9834 9.20511 23.2011 10.0422 22.4697C10.8794 21.7363 11.7598 21.0575 12.6795 20.4313C11.1403 22.7348 9.97092 25.2113 9.16749 27.8646C8.36602 30.5159 7.96622 33.2274 7.96997 35.9991C7.96997 51.4898 20.5444 64.0941 36 64.0941C38.2074 64.096 40.3829 63.8402 42.5303 63.3231C44.6757 62.8079 46.7311 62.0482 48.6983 61.0422C48.0582 61.7831 47.3825 62.4882 46.6672 63.1577C45.954 63.8251 45.2051 64.4532 44.4242 65.0418C43.6414 65.6303 42.8306 66.1738 41.9916 66.674C41.1506 67.176 40.2872 67.6292 39.3975 68.0372C38.5078 68.4453 37.6011 68.8026 36.672 69.1128C35.7448 69.4231 34.8044 69.6826 33.8489 69.8913C32.8935 70.1 31.9287 70.2562 30.9564 70.3614C29.984 70.4667 29.0099 70.5175 28.0319 70.5175ZM51.343 58.6729C52.0413 57.6292 52.6645 56.5406 53.2145 55.4104C54.3989 54.9967 55.5476 54.5059 56.6644 53.9362C55.099 55.747 53.3271 57.3247 51.3524 58.6729H51.343ZM59.313 51.5688C60.8503 49.2653 62.0216 46.7869 62.8231 44.1356C63.6246 41.4824 64.0244 38.7708 64.0225 35.9991C64.0225 20.5084 51.4481 7.90793 35.9906 7.90793C33.7851 7.90417 31.6077 8.15991 29.4622 8.67701C27.3149 9.19224 25.2595 9.95193 23.2942 10.9579C23.9324 10.2171 24.61 9.51191 25.3252 8.84249C26.0403 8.17307 26.7893 7.54502 27.5701 6.95645C28.3529 6.3679 29.1657 5.82446 30.0047 5.32239C30.8456 4.82221 31.711 4.36904 32.6007 3.96099C33.4903 3.55294 34.3989 3.19379 35.3262 2.88541C36.2534 2.57514 37.1956 2.31565 38.1511 2.10692C39.1065 1.90007 40.0713 1.74212 41.0436 1.6387C42.016 1.5334 42.9901 1.48263 43.9681 1.48263C59.0465 1.48263 71.3186 13.7785 71.3186 28.895C71.3186 30.0082 71.251 31.1195 71.1159 32.2252C70.9808 33.3308 70.7781 34.4253 70.5096 35.5065C70.2412 36.5877 69.907 37.6482 69.511 38.6899C69.1131 39.7298 68.6532 40.7414 68.1332 41.7268C67.6114 42.7103 67.0333 43.6598 66.397 44.5737C65.7607 45.4876 65.0699 46.3582 64.3285 47.1893C63.5852 48.0186 62.7949 48.799 61.9578 49.5323C61.1206 50.2638 60.2402 50.9426 59.3205 51.5688H59.313Z" fill="white"/>
</svg>
