<svg width="20" height="20" viewBox="0 0 20 20" fill="none" xmlns="http://www.w3.org/2000/svg">
<path d="M17.9887 9.57166C17.9029 7.94519 17.3313 6.44751 16.4163 5.22103C16.1749 5.48413 15.8785 5.76986 15.4957 6.09165C14.5881 6.85464 13.4887 7.54313 12.1834 8.10106C12.3498 8.45066 12.5029 8.78996 12.6376 9.10986L12.6388 9.11256C12.6652 9.17426 12.6879 9.23066 12.7321 9.34186C12.7379 9.35626 12.7433 9.36976 12.7485 9.38256C14.2621 9.21226 15.8576 9.27496 17.4049 9.48456C17.6106 9.51236 17.805 9.54156 17.9887 9.57166ZM8.6044 2.12136C8.7783 2.36627 8.9602 2.62865 9.1803 2.95384C9.7929 3.85896 10.396 4.81397 10.9604 5.79513C11.0749 5.99422 11.187 6.19295 11.2964 6.39118C12.5193 5.90999 13.5296 5.30287 14.3438 4.62492C14.6731 4.35069 14.9383 4.09306 15.1403 3.86978C13.7501 2.70283 11.9571 2.00006 10 2.00006C9.524 2.00006 9.0576 2.04164 8.6044 2.12136ZM2.25266 7.99761C2.83145 7.98458 3.48467 7.94947 4.29303 7.87524C5.90024 7.72764 7.54141 7.46255 9.1549 7.0528C8.5719 6.03727 7.93888 5.02337 7.29452 4.05384C6.98479 3.58781 6.68357 3.14998 6.45484 2.82648C4.39541 3.84619 2.83794 5.72664 2.25266 7.99761ZM3.78366 15.0361C4.17111 14.4694 4.68061 13.8315 5.35797 13.1375C6.81199 11.6479 8.5286 10.4879 10.5139 9.84736C10.5417 9.83916 10.5604 9.83366 10.576 9.82906C10.411 9.46516 10.2562 9.14056 10.1003 8.83426C8.2643 9.36876 6.3303 9.70306 4.40279 9.87626C3.46319 9.96066 2.62005 9.99816 2 10.0045C2.00102 11.9113 2.66915 13.6621 3.78366 15.0361ZM13.0045 17.4167C12.9001 16.8746 12.7669 16.2707 12.5899 15.5741C12.2689 14.3113 11.8668 13.0121 11.373 11.7079C9.3712 12.4344 7.77574 13.4975 6.54309 14.765C5.94904 15.3758 5.51244 15.9538 5.22642 16.4204C6.55892 17.4128 8.2109 18.0001 10 18.0001C11.0626 18.0001 12.0769 17.7929 13.0045 17.4167ZM14.8778 16.3415C16.4073 15.1633 17.4985 13.4441 17.8652 11.4704C17.5253 11.3866 17.094 11.3006 16.6196 11.2347C15.5756 11.0898 14.5014 11.0656 13.4409 11.2019C13.8933 12.4765 14.2642 13.7333 14.5608 14.9362C14.6903 15.4615 14.7958 15.9359 14.8778 16.3415ZM10 20.0001C4.47715 20.0001 0 15.5229 0 10.0001C0 4.47721 4.47715 6.10352e-05 10 6.10352e-05C15.5228 6.10352e-05 20 4.47721 20 10.0001C20 15.5229 15.5228 20.0001 10 20.0001Z" fill="white"/>
</svg>
