<svg width="20" height="20" viewBox="0 0 20 20" fill="none" xmlns="http://www.w3.org/2000/svg">
<path d="M4.19731 2.22312C4.19692 3.12787 3.67853 3.94203 2.88657 4.28169C2.09461 4.62136 1.18724 4.4187 0.592306 3.76929C-0.00262335 3.11987 -0.166295 2.15337 0.178457 1.32554C0.52322 0.497716 1.30756 -0.0261366 2.16164 0.00100656C3.29602 0.0370604 4.19782 1.02145 4.19731 2.22312ZM4.26027 6.0896H0.0630112V20H4.26027V6.0896ZM10.892 6.0896H6.71566V20H10.85V12.7004C10.85 8.63389 15.8552 8.25613 15.8552 12.7004V20H20V11.1893C20 4.33413 12.5918 4.58967 10.85 7.95614L10.892 6.0896Z" fill="white"/>
</svg>
