<svg width="72" height="72" viewBox="0 0 72 72" fill="none" xmlns="http://www.w3.org/2000/svg">
<path d="M71.6682 35.6698C69.3469 35.6755 67.0481 35.4543 64.77 35.0043C62.4937 34.5543 60.2832 33.8849 58.1381 32.998C55.9931 32.1093 53.9569 31.0199 52.0294 29.728C50.1 28.4343 48.3169 26.9661 46.68 25.3198C45.0356 23.683 43.5657 21.8998 42.2737 19.9724C40.9819 18.043 39.8925 16.0067 39.0037 13.8637C38.115 11.7186 37.4475 9.50802 36.9975 7.22987C36.5475 4.95363 36.3262 2.65301 36.3319 0.331753C36.3319 0.241753 36.3 0.163003 36.2344 0.0973776C36.1706 0.0336282 36.0919 -0.00012207 36 -0.00012207C35.9081 -0.00012207 35.8312 0.0336282 35.7656 0.0973776C35.7 0.163003 35.6682 0.241753 35.6682 0.331753C35.6738 2.65301 35.4525 4.95363 35.0025 7.22987C34.5544 9.50802 33.885 11.7186 32.9962 13.8637C32.1075 16.0067 31.0181 18.043 29.7263 19.9724C28.4344 21.8998 26.9644 23.683 25.32 25.3198C23.6831 26.9661 21.9 28.4343 19.9725 29.728C18.0431 31.0199 16.0069 32.1093 13.8619 32.998C11.7187 33.8849 9.50625 34.5543 7.23 35.0043C4.95187 35.4543 2.65313 35.6755 0.331875 35.6698C0.24 35.6698 0.161249 35.7018 0.0974997 35.7655C0.0318753 35.8311 0 35.9099 0 35.9999C0 36.0918 0.0318753 36.1705 0.0974997 36.2361C0.161249 36.2998 0.24 36.3318 0.331875 36.3318C2.65313 36.3261 4.95187 36.5473 7.23 36.9973C9.50625 37.4473 11.7169 38.1168 13.8619 39.0055C16.0069 39.8924 18.0431 40.9836 19.9706 42.2755C21.9 43.5673 23.6831 45.0355 25.32 46.6818C26.9644 48.3186 28.4344 50.1018 29.7263 52.0292C31.0181 53.9587 32.1075 55.9949 32.9962 58.138C33.885 60.283 34.5544 62.4936 35.0025 64.7718C35.4525 67.048 35.6738 69.3487 35.6682 71.6698C35.6682 71.7598 35.7 71.8386 35.7656 71.9043C35.8312 71.968 35.9081 71.9999 36 71.9999C36.0919 71.9999 36.1706 71.968 36.2344 71.9043C36.3 71.8386 36.3319 71.7598 36.3319 71.6698C36.3319 52.1848 52.1832 36.3318 71.6682 36.3318C71.76 36.3318 71.8387 36.2998 71.9025 36.2361C71.9681 36.1705 72 36.0918 72 35.9999C72 35.9099 71.9681 35.8311 71.9025 35.7655C71.8387 35.7018 71.76 35.6698 71.6682 35.6698ZM36 66.7593C35.7394 64.8243 35.3212 62.9268 34.7494 61.0611C34.1775 59.1955 33.4556 57.3899 32.5875 55.6424C31.7194 53.8967 30.7144 52.2317 29.5744 50.6493C28.4325 49.0668 27.1706 47.5874 25.7869 46.2111C24.4125 44.8292 22.935 43.5673 21.3525 42.4274C19.7719 41.2874 18.1087 40.2823 16.3632 39.4143C14.6175 38.5462 12.8119 37.8262 10.95 37.2543C9.08622 36.6805 7.18688 36.2624 5.25562 35.9999C7.18875 35.7392 9.08622 35.3211 10.95 34.7473C12.8138 34.1755 14.6175 33.4555 16.365 32.5873C18.1106 31.7174 19.7737 30.7143 21.3544 29.5723C22.9369 28.4324 24.4144 27.1705 25.7888 25.7887C27.1725 24.4143 28.4325 22.9348 29.5744 21.3543C30.7144 19.7736 31.7175 18.1086 32.5857 16.363C33.4556 14.6174 34.1756 12.8136 34.7475 10.9499C35.3212 9.0861 35.7375 7.18863 36 5.25738C36.2625 7.18863 36.6807 9.0861 37.2525 10.9499C37.8244 12.8136 38.5463 14.6174 39.4144 16.363C40.2825 18.1086 41.2856 19.7736 42.4275 21.3543C43.5675 22.9348 44.8294 24.4143 46.2112 25.7887C47.5875 27.1724 49.065 28.4343 50.6475 29.5742C52.23 30.7162 53.895 31.7211 55.6425 32.5892C57.39 33.4574 59.1956 34.1774 61.0612 34.7492C62.925 35.323 64.8244 35.7392 66.7575 35.9999C50.8275 38.1862 38.1844 50.8293 36 66.7593Z" fill="white"/>
</svg>
