<svg width="17" height="20" viewBox="0 0 17 20" fill="none" xmlns="http://www.w3.org/2000/svg">
<path d="M8.62993 0H8.62872C5.75118 0.0202266 3.52723 1.00387 2.03203 2.93251C0.703221 4.64655 0.022856 7.03889 0 10.0063V10.0076C0.022856 12.9751 0.703268 15.3535 2.03203 17.0675C3.52729 18.9961 5.76277 19.9798 8.64026 20H8.64138C11.1989 19.982 13.0126 19.3014 14.5068 17.7867C16.4656 15.801 16.4074 13.3094 15.7604 11.7781C15.2678 10.613 14.295 9.68047 12.9914 9.10059C12.8229 6.2826 11.26 4.63797 8.69145 4.62132C7.17408 4.61182 5.80497 5.30086 4.96642 6.59194L6.50708 7.66433C7.00303 6.90086 7.7881 6.53256 8.67981 6.54092C9.97086 6.54928 10.8194 7.27205 11.0575 8.54006C10.339 8.42599 9.56678 8.39285 8.74542 8.44063C6.28936 8.58416 4.68076 10.0574 4.78803 12.1003C4.90021 14.2361 6.93947 15.3998 8.87571 15.2925C11.1951 15.1636 12.5733 13.4268 12.9003 11.2119C13.4373 11.565 13.8336 12.0153 14.058 12.5465C14.4671 13.5146 14.4931 15.1114 13.2059 16.4164C12.0735 17.5643 10.7123 18.0647 8.63514 18.0803C6.33203 18.0629 4.6036 17.3143 3.48179 15.8672C2.42851 14.5086 1.87824 12.5383 1.85761 10C1.87824 7.4617 2.42851 5.49133 3.48179 4.13273C4.6036 2.68571 6.332 1.93711 8.63505 1.91961C10.955 1.93724 12.7147 2.68952 13.8804 4.14467C14.5233 4.94728 14.926 5.90672 15.1949 6.89698L17 6.4083C16.6624 5.14542 16.1288 3.94102 15.3113 2.92057C13.7728 1.00002 11.5131 0.0203021 8.62993 0ZM8.8504 10.357C9.67306 10.3088 10.4357 10.3619 11.1134 10.5046C10.9824 11.9938 10.3752 13.2865 8.77567 13.3756C7.74091 13.4348 6.69388 12.9661 6.64297 11.996C6.60509 11.2749 7.1308 10.4575 8.8504 10.357Z" fill="white"/>
</svg>
