<svg width="72" height="72" viewBox="0 0 72 72" fill="none" xmlns="http://www.w3.org/2000/svg">
<path d="M71.8195 34.8569C71.6995 34.8062 71.5926 34.8269 71.5007 34.9188L60.3806 46.0358V23.5092C60.3806 23.3798 60.3186 23.2898 60.1986 23.2411C60.0785 23.1904 59.9716 23.211 59.8796 23.303L48.7595 34.42V11.8934C48.7501 11.7714 48.6882 11.6871 48.5757 11.644C48.4612 11.599 48.36 11.6177 48.2699 11.7002L37.1497 22.8172V0.290624C37.146 0.163101 37.0859 0.0749599 36.9697 0.0262013C36.8515 -0.0225577 36.7465 -0.00380377 36.6546 0.0843369L0.0844826 36.6591C-0.0036833 36.751 -0.0224416 36.856 0.0263307 36.9723C0.0751035 37.0904 0.16327 37.1504 0.290828 37.1523H22.8106L11.7036 48.2693C11.6117 48.3612 11.5911 48.4682 11.6398 48.5881C11.6905 48.7081 11.7806 48.7681 11.91 48.7681H34.426L23.3152 59.8852C23.2233 59.979 23.2027 60.084 23.2514 60.204C23.3021 60.324 23.3903 60.3841 23.5216 60.3841H46.0414L34.9287 71.5011C34.8387 71.5948 34.8161 71.6998 34.8668 71.8198C34.9156 71.9399 35.0057 71.9999 35.1351 71.9999H71.707C71.7877 71.9999 71.8571 71.9718 71.9133 71.9155C71.9715 71.8574 71.9996 71.7899 71.9996 71.7074V35.1382C72.0052 35.0032 71.9452 34.9094 71.8195 34.8569ZM0.998028 36.5672L36.5701 0.997625V23.4023L23.3959 36.5672H0.998028ZM36.5701 24.2181V36.5672H24.2231L36.5701 24.2181ZM12.6134 48.1849L23.6379 37.1523H36.8627C36.9434 37.1523 37.0129 37.1242 37.0691 37.0679C37.1273 37.0098 37.1554 36.9404 37.1554 36.8598V23.6386L48.1855 12.6079V35.0107L35.015 48.1849H12.6134ZM48.1855 35.8358V48.183H35.8385L48.1855 35.8358ZM24.2269 59.7971L35.2533 48.77H48.4781C48.5588 48.77 48.6263 48.742 48.6845 48.6837C48.7408 48.6275 48.7707 48.5581 48.7707 48.4775V35.2507L59.799 24.2181V46.6209L46.6304 59.7971H24.2269ZM59.799 47.4498V59.7971H47.4539L59.799 47.4498ZM71.4144 71.4092H35.8479L46.8724 60.3822H60.0916C60.1723 60.3822 60.2417 60.354 60.2998 60.2959C60.3562 60.2396 60.3842 60.1703 60.3842 60.0896V46.8647L71.4144 35.8358V71.4092Z" fill="white"/>
</svg>
