<svg width="72" height="72" viewBox="0 0 72 72" fill="none" xmlns="http://www.w3.org/2000/svg">
<path d="M36 72C16.1485 72 0 55.85 0 36.0009C0 16.1519 16.1485 0 36 0C55.8515 0 72 16.15 72 36.0009C72 55.8519 55.8496 72 36 72ZM36 0.70682C16.5404 0.70682 0.704964 16.5418 0.704964 36.0009C0.704964 55.4619 16.5404 71.2932 36 71.2932C55.4615 71.2932 71.2931 55.4619 71.2931 36.0009C71.2931 16.5418 55.4615 0.70682 36 0.70682ZM36 64.7274C20.1589 64.7274 7.27462 51.8397 7.27462 36.0009C7.27462 20.1622 20.1589 7.27631 36 7.27631C51.8411 7.27631 64.7273 20.1603 64.7273 36.0009C64.7273 51.8415 51.8392 64.7274 36 64.7274ZM36 7.98312C20.5508 7.98312 7.98146 20.5521 7.98146 36.0009C7.98146 51.4516 20.5508 64.0206 36 64.0206C51.4511 64.0206 64.0204 51.4498 64.0204 36.0009C64.0204 20.554 51.4492 7.98312 36 7.98312ZM36 57.4512C35.2988 57.4512 34.5975 57.4174 33.8982 57.348C33.1989 57.2786 32.5052 57.1774 31.8152 57.0386C31.1271 56.9018 30.4447 56.7312 29.7734 56.5287C29.1003 56.3243 28.4404 56.0882 27.7916 55.8182C27.1411 55.5501 26.5073 55.25 25.8868 54.9182C25.268 54.5882 24.6662 54.2264 24.0812 53.8364C23.4982 53.4464 22.9338 53.0283 22.3901 52.5821C21.8482 52.1378 21.327 51.6653 20.8301 51.1685C20.3333 50.6716 19.8627 50.1524 19.4165 49.6086C18.9703 49.0668 18.5522 48.5024 18.1622 47.9175C17.7722 47.3344 17.4122 46.7326 17.0804 46.112C16.7485 45.4933 16.4485 44.8577 16.1804 44.209C15.9104 43.5603 15.6742 42.9003 15.4698 42.2273C15.2673 41.5542 15.0967 40.8737 14.9599 40.1856C14.8211 39.4956 14.7199 38.8019 14.6505 38.1027C14.5811 37.4033 14.5473 36.7021 14.5473 35.9991C14.5473 35.2979 14.5811 34.5966 14.6505 33.8973C14.718 33.1981 14.8211 32.5044 14.958 31.8143C15.0967 31.1263 15.2654 30.4458 15.4698 29.7727C15.6742 29.1015 15.9104 28.4396 16.1785 27.7909C16.4485 27.1422 16.7485 26.5066 17.0804 25.888C17.4103 25.2674 17.7722 24.6656 18.1622 24.0825C18.5522 23.4976 18.9703 22.9351 19.4165 22.3914C19.8608 21.8476 20.3333 21.3284 20.8301 20.8315C21.327 20.3347 21.8463 19.8641 22.3901 19.4179C22.9319 18.9717 23.4963 18.5536 24.0812 18.1636C24.6643 17.7736 25.2661 17.4118 25.8868 17.0818C26.5055 16.7499 27.1411 16.4499 27.7898 16.1818C28.4386 15.9119 29.0985 15.6756 29.7715 15.4713C30.4447 15.2688 31.1252 15.0982 31.8134 14.9613C32.5033 14.8226 33.197 14.7195 33.8963 14.652C34.5957 14.5826 35.2969 14.5488 35.9981 14.5488C36.7012 14.5488 37.4025 14.5826 38.1018 14.652C38.8011 14.7195 39.4948 14.8226 40.1848 14.9594C40.8729 15.0982 41.5534 15.2669 42.2266 15.4713C42.8978 15.6756 43.5596 15.9119 44.2084 16.18C44.8571 16.4499 45.4927 16.7499 46.1113 17.0818C46.732 17.4118 47.3338 17.7736 47.9169 18.1636C48.5018 18.5536 49.0643 18.9717 49.608 19.4179C50.1518 19.8641 50.6711 20.3347 51.168 20.8315C51.6648 21.3284 52.1354 21.8476 52.5816 22.3914C53.0279 22.9351 53.446 23.4976 53.8359 24.0825C54.2259 24.6675 54.5878 25.2693 54.9177 25.888C55.2496 26.5085 55.5496 27.1422 55.8177 27.7909C56.0877 28.4415 56.324 29.1015 56.5283 29.7745C56.7308 30.4457 56.9014 31.1263 57.0383 31.8162C57.1751 32.5062 57.2782 33.1999 57.3476 33.8992C57.417 34.5985 57.4508 35.2998 57.4508 36.0009C57.4508 36.704 57.4151 37.4052 57.3457 38.1027C57.2764 38.8019 57.1733 39.4956 57.0345 40.1838C56.8976 40.8737 56.7271 41.5542 56.5227 42.2255C56.3183 42.8967 56.0802 43.5585 55.8121 44.2072C55.5421 44.8559 55.2421 45.4896 54.9103 46.1082C54.5803 46.727 54.2184 47.3288 53.8285 47.9119C53.4385 48.4968 53.0203 49.0592 52.5741 49.603C52.1298 50.1448 51.6573 50.6661 51.1605 51.161C50.6655 51.6578 50.1443 52.1303 49.6024 52.5746C49.0587 53.0208 48.4962 53.439 47.9112 53.8289C47.3281 54.2189 46.7263 54.5807 46.1076 54.9107C45.4889 55.2425 44.8552 55.5425 44.2065 55.8125C43.5578 56.0806 42.8959 56.3187 42.2247 56.5231C41.5535 56.7274 40.8729 56.898 40.1829 57.0349C39.4948 57.1736 38.8011 57.2767 38.1018 57.3461C37.4043 57.4155 36.7031 57.4512 36 57.4512ZM36 15.2576C35.3213 15.2576 34.6425 15.2894 33.9676 15.3569C33.2907 15.4225 32.6195 15.5219 31.954 15.655C31.2865 15.7881 30.6284 15.9532 29.9778 16.15C29.3272 16.3468 28.6897 16.5756 28.0616 16.8362C27.4335 17.0949 26.8204 17.3855 26.2205 17.7061C25.6206 18.0267 25.0394 18.3754 24.475 18.7523C23.9088 19.131 23.365 19.5341 22.8382 19.9653C22.3132 20.3965 21.8108 20.8521 21.3308 21.3321C20.8489 21.812 20.3933 22.3164 19.9621 22.8413C19.5327 23.3663 19.1278 23.9118 18.7509 24.4762C18.3721 25.0405 18.0234 25.6236 17.7028 26.2217C17.3822 26.8216 17.0935 27.4347 16.8329 28.0628C16.5722 28.6909 16.3435 29.3302 16.1466 29.9789C15.9498 30.6294 15.7848 31.2876 15.6517 31.955C15.5204 32.6205 15.4192 33.2917 15.3535 33.9686C15.286 34.6435 15.2542 35.3223 15.2542 36.0009C15.2542 36.6815 15.286 37.3583 15.3535 38.0352C15.4192 38.7119 15.5186 39.3831 15.6517 40.0488C15.7848 40.7143 15.9498 41.3743 16.1466 42.023C16.3435 42.6735 16.5722 43.3129 16.8329 43.9409C17.0916 44.5671 17.3822 45.1821 17.7028 45.7802C18.0234 46.3801 18.3721 46.9613 18.749 47.5275C19.1278 48.0919 19.5309 48.6374 19.9621 49.1624C20.3933 49.6873 20.8489 50.1898 21.3289 50.6698C21.8108 51.1516 22.3132 51.6072 22.8382 52.0384C23.3632 52.4696 23.9088 52.8727 24.4731 53.2495C25.0375 53.6283 25.6206 53.977 26.2186 54.2976C26.8186 54.6182 27.4317 54.9069 28.0597 55.1676C28.6879 55.4282 29.3272 55.6569 29.9759 55.8537C30.6265 56.0506 31.2846 56.2156 31.9521 56.3487C32.6177 56.4799 33.2889 56.5794 33.9657 56.6469C34.6425 56.7125 35.3194 56.7462 35.9981 56.7462C36.6787 56.7462 37.3556 56.7125 38.0324 56.6469C38.7093 56.5794 39.3805 56.4799 40.046 56.3487C40.7135 56.2156 41.3716 56.0506 42.0203 55.8537C42.6709 55.6569 43.3102 55.4282 43.9384 55.1676C44.5665 54.9069 45.1795 54.6182 45.7776 54.2976C46.3776 53.977 46.9588 53.6283 47.525 53.2514C48.0893 52.8727 48.635 52.4696 49.16 52.0384C49.6849 51.6072 50.1874 51.1516 50.6674 50.6716C51.1493 50.1898 51.6048 49.6873 52.036 49.1624C52.4673 48.6374 52.8704 48.0919 53.2491 47.5275C53.626 46.9613 53.9747 46.3801 54.2953 45.7802C54.6159 45.1821 54.9047 44.569 55.1652 43.9409C55.4259 43.3129 55.6546 42.6735 55.8515 42.023C56.0483 41.3743 56.2134 40.7143 56.3465 40.0488C56.4777 39.3831 56.5789 38.7119 56.6446 38.0352C56.7121 37.3583 56.7439 36.6815 56.7439 36.0009C56.7439 35.3223 56.7102 34.6454 56.6427 33.9686C56.5752 33.2936 56.4758 32.6224 56.3427 31.9569C56.2096 31.2894 56.0446 30.6332 55.8458 29.9826C55.649 29.3321 55.4202 28.6947 55.1596 28.0666C54.899 27.4404 54.6084 26.8273 54.2878 26.2273C53.9672 25.6293 53.6185 25.0462 53.2416 24.4818C52.8647 23.9175 52.4597 23.3738 52.0285 22.8489C51.5974 22.3239 51.1417 21.8196 50.6617 21.3396C50.1817 20.8597 49.6793 20.404 49.1543 19.9728C48.6293 19.5416 48.0857 19.1385 47.5194 18.7597C46.9551 18.3829 46.3738 18.0342 45.7757 17.7136C45.1758 17.393 44.5627 17.1024 43.9365 16.8418C43.3084 16.5812 42.669 16.3525 42.0203 16.1556C41.3698 15.9587 40.7116 15.7919 40.046 15.6588C39.3805 15.5257 38.7093 15.4263 38.0343 15.3588C37.3575 15.2913 36.6806 15.2576 36 15.2576ZM36 50.1767C35.5369 50.1767 35.0738 50.1542 34.6107 50.1074C34.1495 50.0624 33.6902 49.9949 33.2345 49.9049C32.7789 49.813 32.3289 49.7005 31.8846 49.5655C31.4402 49.4305 31.0034 49.2749 30.5759 49.0968C30.1466 48.9206 29.7266 48.7218 29.3179 48.5024C28.9073 48.2831 28.5097 48.045 28.1236 47.7881C27.7373 47.5294 27.3642 47.2538 27.0061 46.9594C26.648 46.6632 26.303 46.352 25.9749 46.0239C25.6468 45.6958 25.3355 45.3527 25.0412 44.9927C24.7469 44.6346 24.4694 44.2616 24.2125 43.8753C23.9538 43.491 23.7156 43.0916 23.4963 42.6829C23.2769 42.2742 23.08 41.8542 22.9019 41.4248C22.7238 40.9955 22.5682 40.5587 22.4332 40.1144C22.2982 39.6701 22.1857 39.222 22.0957 38.7663C22.0038 38.3107 21.9363 37.8514 21.8913 37.3902C21.8445 36.9271 21.822 36.464 21.822 35.9991C21.822 35.5359 21.8445 35.0729 21.8913 34.6098C21.9363 34.1486 22.0038 33.6893 22.0938 33.2336C22.1857 32.778 22.2982 32.3299 22.4332 31.8856C22.5682 31.4413 22.7238 31.0045 22.9019 30.5751C23.0782 30.1458 23.2769 29.7277 23.4963 29.3171C23.7156 28.9083 23.9538 28.5109 24.2106 28.1247C24.4694 27.7384 24.745 27.3653 25.0394 27.0073C25.3337 26.6473 25.6468 26.3041 25.9749 25.9761C26.303 25.648 26.6461 25.3368 27.0042 25.0424C27.3642 24.7462 27.7373 24.4705 28.1217 24.2119C28.5079 23.955 28.9073 23.7169 29.316 23.4976C29.7247 23.2782 30.1447 23.0813 30.574 22.9032C31.0034 22.7251 31.4384 22.5695 31.8827 22.4345C32.3271 22.2995 32.777 22.187 33.2327 22.0951C33.6883 22.0051 34.1476 21.9376 34.6088 21.8926C35.0719 21.8458 35.5351 21.8233 35.9981 21.8233C36.4631 21.8233 36.9262 21.8458 37.3893 21.8926C37.8505 21.9376 38.3098 22.0051 38.7655 22.0951C39.2192 22.187 39.6692 22.2995 40.1135 22.4345C40.5579 22.5695 40.9947 22.7251 41.4241 22.9032C41.8534 23.0794 42.2716 23.2782 42.6821 23.4976C43.0909 23.7169 43.4884 23.955 43.8745 24.2119C44.2608 24.4705 44.634 24.7462 44.992 25.0405C45.352 25.3368 45.6952 25.648 46.0232 25.9761C46.3513 26.3041 46.6626 26.6473 46.957 27.0073C47.2513 27.3653 47.5288 27.7384 47.7857 28.1247C48.0443 28.5109 48.2825 28.9083 48.5018 29.3171C48.7212 29.7277 48.9181 30.1458 49.0962 30.5751C49.2743 31.0045 49.4299 31.4413 49.5649 31.8856C49.6999 32.3299 49.8124 32.7799 49.9024 33.2355C49.9943 33.6911 50.0618 34.1504 50.1068 34.6117C50.1537 35.0748 50.1762 35.5378 50.1762 36.0009C50.1743 36.4659 50.1518 36.929 50.1068 37.3902C50.0599 37.8514 49.9924 38.3107 49.9005 38.7663C49.8105 39.2201 49.6962 39.6701 49.5612 40.1144C49.4262 40.5587 49.2706 40.9955 49.0925 41.423C48.9144 41.8523 48.7156 42.2705 48.4981 42.681C48.2787 43.0898 48.0406 43.4872 47.7819 43.8734C47.5231 44.2578 47.2476 44.6309 46.9532 44.989C46.6588 45.3489 46.3476 45.6921 46.0195 46.0201C45.6914 46.3482 45.3483 46.6595 44.9883 46.9538C44.6302 47.2481 44.257 47.5238 43.8727 47.7825C43.4865 48.0413 43.089 48.2793 42.6802 48.4968C42.2697 48.7162 41.8515 48.9149 41.4222 49.093C40.9947 49.2711 40.5579 49.4268 40.1135 49.5617C39.6692 49.6967 39.2192 49.8111 38.7655 49.9011C38.3098 49.993 37.8505 50.0605 37.3893 50.1074C36.9281 50.1524 36.4649 50.1749 36 50.1767ZM36 22.532C35.5594 22.532 35.1188 22.5545 34.6801 22.5976C34.2413 22.6407 33.8045 22.7045 33.3733 22.7907C32.9402 22.8769 32.5127 22.9839 32.0909 23.1113C31.6671 23.2407 31.2528 23.3888 30.8459 23.5575C30.4372 23.7263 30.0397 23.9137 29.6497 24.1219C29.2616 24.33 28.8829 24.5568 28.5173 24.8024C28.1497 25.0462 27.7954 25.3087 27.4542 25.5898C27.1129 25.8692 26.7867 26.1655 26.4755 26.4767C26.1624 26.7898 25.8662 27.116 25.5868 27.4572C25.3075 27.7966 25.0449 28.1509 24.7993 28.5184C24.5537 28.8858 24.3287 29.2627 24.1206 29.6527C23.9125 30.0408 23.7231 30.4401 23.5544 30.847C23.3857 31.2538 23.2375 31.67 23.11 32.0919C22.9807 32.5137 22.8738 32.9412 22.7875 33.3743C22.7013 33.8073 22.6376 34.2423 22.5944 34.681C22.5513 35.1198 22.5288 35.5603 22.5288 36.0009C22.5288 36.4434 22.5513 36.8821 22.5944 37.3227C22.6376 37.7614 22.7013 38.1963 22.7875 38.6295C22.8738 39.0626 22.9807 39.4901 23.1081 39.9119C23.2375 40.3337 23.3857 40.7481 23.5544 41.1567C23.7231 41.5636 23.9107 41.9629 24.1187 42.3511C24.3268 42.741 24.5537 43.1179 24.7993 43.4853C25.0449 43.8509 25.3075 44.2053 25.5868 44.5465C25.8662 44.8878 26.1624 45.2139 26.4736 45.5252C26.7867 45.8383 27.1129 46.1345 27.4542 46.4139C27.7954 46.6932 28.1479 46.9557 28.5154 47.2013C28.8829 47.4469 29.2597 47.6719 29.6497 47.88C30.0378 48.0881 30.4372 48.2774 30.844 48.4462C31.2509 48.6149 31.6671 48.7631 32.089 48.8906C32.5108 49.0199 32.9383 49.1267 33.3714 49.213C33.8044 49.2993 34.2395 49.363 34.6782 49.4061C35.1169 49.4493 35.5576 49.4718 35.9981 49.4718C36.4406 49.4718 36.8793 49.4493 37.3199 49.4061C37.7587 49.363 38.1937 49.2993 38.6267 49.213C39.0598 49.1267 39.4873 49.0199 39.9091 48.8906C40.3311 48.7631 40.7453 48.6149 41.1541 48.4462C41.5609 48.2774 41.9603 48.0881 42.3484 47.88C42.7384 47.6737 43.1152 47.4469 43.4828 47.2013C43.8484 46.9557 44.2027 46.6932 44.544 46.4139C44.8852 46.1345 45.2114 45.8383 45.5245 45.527C45.8357 45.2139 46.1319 44.8878 46.4114 44.5465C46.6907 44.2053 46.9532 43.8528 47.1988 43.4853C47.4444 43.1179 47.6713 42.741 47.8775 42.3511C48.0856 41.9629 48.275 41.5636 48.4438 41.1567C48.6125 40.7481 48.7606 40.3337 48.8881 39.9119C49.0174 39.4901 49.1243 39.0626 49.2106 38.6295C49.2968 38.1963 49.3606 37.7614 49.4037 37.3227C49.4468 36.8821 49.4693 36.4434 49.4693 36.0009C49.4693 35.5603 49.4468 35.1216 49.4037 34.681C49.3587 34.2423 49.295 33.8073 49.2087 33.3743C49.1206 32.943 49.0137 32.5156 48.8862 32.0937C48.7569 31.6719 48.6087 31.2575 48.44 30.8489C48.2712 30.442 48.0819 30.0445 47.8738 29.6546C47.6656 29.2664 47.4406 28.8896 47.195 28.5221C46.9494 28.1566 46.687 27.8022 46.4076 27.461C46.1282 27.1197 45.832 26.7936 45.5207 26.4823C45.2076 26.1692 44.8814 25.8749 44.5421 25.5936C44.2008 25.3143 43.8465 25.0517 43.4809 24.8061C43.1134 24.5624 42.7365 24.3356 42.3465 24.1275C41.9585 23.9194 41.5609 23.73 41.1522 23.5613C40.7453 23.3925 40.3311 23.2444 39.9091 23.1151C39.4873 22.9876 39.0598 22.8807 38.6267 22.7926C38.1955 22.7063 37.7587 22.6426 37.3199 22.5976C36.8812 22.5545 36.4424 22.532 36 22.532ZM36 42.9022C35.5481 42.9022 35.0982 42.8591 34.6538 42.7691C34.2094 42.681 33.7783 42.5498 33.3601 42.3773C32.9421 42.203 32.5426 41.9911 32.1658 41.7398C31.7909 41.4886 31.4421 41.2017 31.1215 40.8812C30.8009 40.5606 30.514 40.2118 30.2628 39.835C30.0116 39.4581 29.7978 39.0607 29.6253 38.6426C29.451 38.2245 29.3216 37.7914 29.2316 37.347C29.1434 36.9027 29.1003 36.4546 29.1003 36.0009C29.1003 35.5491 29.1434 35.0991 29.2316 34.6548C29.3216 34.2104 29.451 33.7793 29.6253 33.3611C29.7978 32.943 30.0116 32.5437 30.2628 32.1669C30.514 31.7918 30.8009 31.4432 31.1215 31.1225C31.4421 30.802 31.7909 30.5151 32.1658 30.2639C32.5426 30.0127 32.9421 29.7989 33.3601 29.6264C33.7783 29.4521 34.2094 29.3227 34.6538 29.2327C35.0982 29.1446 35.5481 29.1015 36 29.1015C36.4537 29.1015 36.9018 29.1446 37.3462 29.2327C37.7924 29.3227 38.2236 29.4521 38.6418 29.6264C39.0598 29.7989 39.4573 30.0127 39.8342 30.2639C40.211 30.5151 40.5598 30.802 40.8803 31.1225C41.201 31.4432 41.4878 31.7918 41.7391 32.1669C41.9903 32.5437 42.2022 32.943 42.3766 33.3611C42.549 33.7793 42.6802 34.2104 42.7684 34.6548C42.8584 35.0991 42.9016 35.5491 42.9016 36.0009C42.9016 36.4546 42.8566 36.9027 42.7684 37.347C42.6784 37.7914 42.549 38.2226 42.3747 38.6408C42.2003 39.0607 41.9884 39.4581 41.7372 39.8331C41.4841 40.21 41.1991 40.5587 40.8785 40.8793C40.5579 41.1999 40.2091 41.4849 39.8323 41.7379C39.4573 41.9892 39.0598 42.2011 38.6399 42.3754C38.2217 42.5498 37.7906 42.6791 37.3462 42.7691C36.9018 42.8572 36.4537 42.9022 36 42.9022ZM36 29.8083C35.5931 29.8083 35.1919 29.8476 34.7926 29.9264C34.3932 30.0051 34.0069 30.1233 33.6301 30.2789C33.2552 30.4345 32.8971 30.6257 32.5596 30.8507C32.2221 31.0775 31.909 31.3344 31.6202 31.6213C31.3334 31.91 31.0765 32.2231 30.8497 32.5606C30.6247 32.898 30.4334 33.2561 30.2778 33.6311C30.1222 34.0061 30.004 34.3942 29.9254 34.7935C29.8466 35.1929 29.8072 35.5941 29.8072 36.0009C29.8072 36.4077 29.8466 36.8108 29.9254 37.2102C30.004 37.6096 30.1222 37.9957 30.2778 38.3727C30.4334 38.7476 30.6247 39.1057 30.8497 39.4432C31.0765 39.7807 31.3334 40.0938 31.6202 40.3825C31.909 40.6693 32.2221 40.9262 32.5596 41.1511C32.8971 41.378 33.2552 41.5693 33.6301 41.7249C34.0069 41.8805 34.3932 41.9967 34.7926 42.0773C35.1919 42.1561 35.5931 42.1955 36 42.1955C36.4069 42.1955 36.81 42.1561 37.2093 42.0773C37.6087 41.9967 37.9949 41.8805 38.3718 41.7249C38.7467 41.5693 39.1048 41.378 39.4423 41.1511C39.7798 40.9262 40.0929 40.6693 40.3816 40.3825C40.6685 40.0938 40.9253 39.7807 41.1503 39.4432C41.3772 39.1057 41.5685 38.7476 41.7241 38.3727C41.8797 37.9957 41.996 37.6096 42.0765 37.2102C42.1553 36.8108 42.1947 36.4077 42.1947 36.0009C42.1947 35.5941 42.1553 35.1929 42.0747 34.7935C41.996 34.3942 41.8778 34.0079 41.7222 33.633C41.5666 33.2561 41.3753 32.8999 41.1503 32.5624C40.9235 32.2231 40.6666 31.91 40.3798 31.6232C40.091 31.3363 39.7798 31.0794 39.4404 30.8525C39.1029 30.6276 38.7467 30.4364 38.3699 30.2808C37.9949 30.1252 37.6068 30.007 37.2093 29.9283C36.81 29.8476 36.4069 29.8083 36 29.8083Z" fill="white"/>
</svg>
